# xmcd
#
# Track frame offsets:
#	150
#	17033
#	28640
#	46429
#	67006
#	90072
#	114601
#	126322
#	153600
#	173594
#
# Disc length: 2476
#
# Revision: 1
# Processed by: cddbd v1.5.1PL0 Copyright (c) Steve Scherf et al.
# Submitted via: OrangeCD 5.1
# Normalized: r0:DSETVAR1,TDELIM( - )
#
DISCID=7b09aa0a
DTITLE=Various Artist - Singin' the Blues
DYEAR=1900
DGENRE=Blues
TTITLE0=Buddy Guy and Junior Wells - Messin' With the Kid
TTITLE1=John Lee Hooker - Boogie Chillun'
TTITLE2=Pinetop Perkins - Hi-Heel Sneakers
TTITLE3=Lightnin' Hopkins - Glory Be
TTITLE4=B.B. King - Every Day I Have the Blues
TTITLE5=Junior Wells - Sweet Home Chicago
TTITLE6=Ray Charles - You Be My Baby
TTITLE7=Joe Carter - Stormy Monday
TTITLE8=Fenton Robinson - Somebody Loan Me a Dime
TTITLE9=John Lee Hooker - Frisco Blues
EXTD=
EXTT0=
EXTT1=
EXTT2=
EXTT3=
EXTT4=
EXTT5=
EXTT6=
EXTT7=
EXTT8=
EXTT9=
PLAYORDER=
